<svg xmlns="http://www.w3.org/2000/svg" width="31.904" height="28.59" viewBox="0 0 31.904 28.59">
    <path fill="#9a9a9a" stroke="#9a9a9a" d="M384.97 415.357c0-1.756-.007-3.511.007-5.267a.445.445 0 0 0-.4-.521c-1.692-.457-3.376-.939-5.063-1.415-1.026-.289-1.222-.692-.82-1.685.682-1.683 1.377-3.361 2.045-5.049a6.625 6.625 0 0 1 3.519-3.667q2.015-.936 4.066-1.793a2.976 2.976 0 0 1 1.11-.225q4.429-.027 8.858 0a2.671 2.671 0 0 1 .93.167c1.487.573 2.974 1.149 4.441 1.77a6.614 6.614 0 0 1 3.84 4.025c.572 1.622 1.186 3.23 1.779 4.845.3.826.087 1.261-.76 1.518-1.631.495-3.262.992-4.9 1.466a.539.539 0 0 0-.469.622c.017 3.4.01 6.8.009 10.2 0 1.215-.317 1.643-1.494 2a25.465 25.465 0 0 1-8.9.917 33.159 33.159 0 0 1-6.414-1 1.6 1.6 0 0 1-1.389-1.774q.004-2.573.005-5.134zm-.036-6.938a2.576 2.576 0 0 0 .034-.277c0-1.069-.021-2.139.02-3.207a.94.94 0 0 1 .385-.675c.489-.283.937.077.937.705 0 5.122.008 10.245-.01 15.367 0 .517.176.767.672.845 1.778.278 3.545.657 5.333.828a23.641 23.641 0 0 0 8.814-.747.812.812 0 0 0 .7-.929c-.023-5.122-.014-10.245-.013-15.368 0-.505.256-.793.685-.79.408 0 .662.281.668.76.009.622 0 1.245 0 1.867v1.613l4.841-1.467c-.615-1.672-1.22-3.265-1.786-4.871a5.5 5.5 0 0 0-3.286-3.387c-1.165-.473-2.342-.921-3.5-1.418a.626.626 0 0 0-.906.228 5.2 5.2 0 0 1-.8.826 5.323 5.323 0 0 1-4.949 1.524 6.961 6.961 0 0 1-3.729-2.455.455.455 0 0 0-.64-.148c-1.157.533-2.333 1.025-3.491 1.555a4.828 4.828 0 0 0-2.537 2.3c-.877 1.925-1.647 3.9-2.482 5.9zm12.326-11.492h-6.836c2.276 2.58 4.831 2.348 6.835 0z" transform="translate(-378.007 -395.223)"/>
</svg>
