<svg xmlns="http://www.w3.org/2000/svg" width="35.592" height="28.158" viewBox="0 0 35.592 28.158">
    <defs>
        <style>
            .cls-1{fill:none;stroke:#9a9a9a;stroke-miterlimit:10;stroke-width:1.5px}
        </style>
    </defs>
    <g id="Group_1206" transform="translate(.75 .749)">
        <path id="Path_41" d="M5485.73 626.662c-.008-2.208-.55-2.733-2.764-2.757-2.468-.025-4.937-.005-7.535-.005a14.5 14.5 0 0 0-.145-2.45c-.095-.414-.538-1.059-.837-1.067-3.212-.077-6.429-.048-9.7-.048-.107 1.3-.193 2.341-.286 3.446h-3.663c-.477-2.459-1.138-2.71-4.995-1.961-.118.614-.24 1.255-.358 1.863-3.791.611-3.791.611-3.791 4.438 0 5.325-.011 10.65.006 15.974.006 2.4.482 2.89 2.8 2.893q14.257.016 28.511 0c2.235 0 2.748-.5 2.756-2.734q.033-8.796.001-17.592z" class="cls-1" transform="translate(-5451.654 -620.33)"/>
        <path id="Path_42" d="M5493.7 654.007a5.812 5.812 0 1 1-5.8-5.766 5.859 5.859 0 0 1 5.8 5.766z" class="cls-1" transform="translate(-5469.759 -636.939)"/>
        <path id="Rectangle_13" d="M0 0H8.987V2.917H0z" class="cls-1" transform="translate(5.142 6.203)"/>
    </g>
</svg>
