<svg xmlns="http://www.w3.org/2000/svg" width="35.348" height="35.505" viewBox="0 0 35.348 35.505">
    <defs>
        <style>
            .cls-1{fill:#9a9a9a;stroke:#9a9a9a}
        </style>
    </defs>
    <g id="Group_1207" transform="translate(.5 .498)">
        <path id="Path_43" d="M4880.046 115.365c-.362 0-.794-.029-1.313-.072-1.2-.1-1.348-.507-1.462-1.923h-4.209l.071-.62c.209-1.831.588-2.835 2.042-3.235V86.431c-1.4-.36-1.745-1.141-2.05-3.115l-.1-.642h32.957l-.1.641c-.3 1.94-.659 2.75-2.047 3.127v23.009c1.264.186 1.583 1.222 1.823 2a4.967 4.967 0 0 0 .391 1.012l.477.834h-4.808c-.386 1.838-.75 2-3.041 2.023h-.231a1.4 1.4 0 0 1-1.608-1.653v-.251h-14.614c-.433 1.557-.843 1.949-2.178 1.949zm-1.555-1.218c.077.014.217.026.333.036a4.883 4.883 0 0 0 1.889-.017c.2-.122.334-.624.54-1.436l.106-.421h16.258l.155.307a2.3 2.3 0 0 1 .182 1.054 1.365 1.365 0 0 0 .047.473.8.8 0 0 0 .435.07h.231a4.365 4.365 0 0 0 1.639-.152 3.575 3.575 0 0 0 .408-1.418l.086-.453h3.922c-.046-.139-.088-.274-.128-.4-.293-.954-.441-1.285-1.289-1.244l-.582.027v-25.04l.456-.084c.917-.17 1.226-.284 1.494-1.661h-30.338c.267 1.378.561 1.481 1.493 1.643l.461.08v24.922l-.464.078c-.9.151-1.27.341-1.5 1.744h3.982l.037.517a9.451 9.451 0 0 0 .147 1.375z" class="cls-1" transform="translate(-4872.541 -80.858)"/>
        <path id="Path_44" d="M4921.854 117.838h-20.047v-9.653h20.047zm-18.933-1.114h17.819V109.3h-17.819z" class="cls-1" transform="translate(-4894.909 -100.685)"/>
        <path id="Path_45" d="M4921.854 162.838h-20.047v-9.653h20.047zm-18.933-1.114h17.819V154.3h-17.819z" class="cls-1" transform="translate(-4894.909 -135.657)"/>
        <path id="Path_46" d="M4930.8 117.722h5.975a.557.557 0 0 0 0-1.114h-5.975a.557.557 0 0 0 0 1.114z" class="cls-1" transform="translate(-4917.023 -107.23)"/>
        <path id="Path_47" d="M4930.8 162.722h5.975a.557.557 0 0 0 0-1.114h-5.975a.557.557 0 0 0 0 1.114z" class="cls-1" transform="translate(-4917.023 -142.203)"/>
        <path id="Path_48" d="M4871.393 75.659h28.855c1.327 0 2.66.041 3.986 0h.054a.557.557 0 0 0 0-1.114h-28.854c-1.328 0-2.661-.041-3.988 0h-.054a.557.557 0 0 0 0 1.114z" class="cls-1" transform="translate(-4870.855 -74.527)"/>
    </g>
</svg>
