<svg xmlns="http://www.w3.org/2000/svg" id="Group_1203" width="30.358" height="30.045" viewBox="0 0 30.358 30.045">
    <defs>
        <style>
            .cls-1{fill:#9a9a9a}
        </style>
    </defs>
    <path id="Path_49" d="M4619.1 85.843c0 2.067-.006 4.134 0 6.2.006 1.419-.633 2.213-1.818 2.222s-1.89-.785-1.85-2.188q.183-6.293.411-12.585a1.378 1.378 0 0 0-.754-1.433c-2.5-1.578-3.229-4.085-3.21-6.851a7.907 7.907 0 0 1 1.909-5.295 4.411 4.411 0 0 1 6.866-.094 8.935 8.935 0 0 1-.051 11.326c-.207.221-.412.511-.675.6-1.354.456-1.279 1.494-1.236 2.626.069 1.821.018 3.647.018 5.471zm-5.676-14.92c-.048.68.114 1.284.9 1.3.725.018.946-.535.941-1.187a1.4 1.4 0 0 1 .014-.272c.239-1.269.464-2.512 2.029-2.907a.877.877 0 0 0-.528-1.661 4.748 4.748 0 0 0-1.86 1.019 5.513 5.513 0 0 0-1.496 3.709z" class="cls-1" transform="translate(-4611.883 -64.226)"/>
    <path id="Path_50" d="M4737.618 85.8v6.473a1.879 1.879 0 0 1-1.876 2.112 1.844 1.844 0 0 1-1.856-2.117c.137-4.225.283-8.451.462-12.674a1.226 1.226 0 0 0-.717-1.357 4.027 4.027 0 0 1-2.125-3.96c.132-2.366.4-4.724.614-7.086a19.6 19.6 0 0 1 .209-1.993 2.832 2.832 0 0 1 .507-.827c.167.3.46.595.483.907.13 1.88.194 3.765.295 5.648.023.426-.126 1.062.541 1.017.213-.014.515-.664.55-1.044.173-1.877.276-3.76.393-5.642.027-.457.1-.967.654-.854a1.181 1.181 0 0 1 .622.881c.176 1.907.251 3.823.423 5.73.031.343.364.658.559.986.177-.334.489-.658.512-1 .126-1.911.159-3.829.282-5.74.021-.307.34-.595.522-.892.165.278.447.544.479.837.313 2.932.633 5.865.849 8.8a4.246 4.246 0 0 1-2.292 4.327.945.945 0 0 0-.575.99c.029 2.158.012 4.317.012 6.475z" class="cls-1" transform="translate(-4709.66 -64.344)"/>
    <path id="Path_51" d="M4688.04 79.419V92.38c0 1.2-.518 1.87-1.473 1.947a1.445 1.445 0 0 1-1.633-.9c-1.762-5.074-3.006-10.216-1.766-15.632a3.04 3.04 0 0 1 1.679-2.451c.168-.071.284-.494.263-.741-.216-2.667-.468-5.331-.7-8-.123-1.381.536-2.253 1.712-2.291s1.918.764 1.919 2.145q.005 6.482-.001 12.962z" class="cls-1" transform="translate(-4669.741 -64.296)"/>
</svg>
