<?xml version="1.0" encoding="UTF-8"?>
<svg width="320px" height="320px" viewBox="0 0 320 320" version="1.1" xmlns="http://www.w3.org/2000/svg" xmlns:xlink="http://www.w3.org/1999/xlink">
    <title>Logo / Bukit Logo Monogram - Salmon</title>
    <g id="Logo-/-Bukit-Logo-Monogram---Salmon" stroke="none" stroke-width="1" fill="none" fill-rule="evenodd">
        <path d="M239.51442,121.053926 L220.28341,241.781407 L100.439898,241.781407 L81.2088882,121.053926 L239.51442,121.053926 Z M232.546118,127.006605 L88.1583825,127.006605 L105.508609,235.828728 L215.195892,235.828728 L232.546118,127.006605 Z M196.41612,167.716009 C198.072974,167.716009 199.41612,169.059155 199.41612,170.716009 L199.41612,171.298751 C199.41612,172.955605 198.072974,174.298751 196.41612,174.298751 L123.752357,174.298751 C122.095503,174.298751 120.752357,172.955605 120.752357,171.298751 L120.752357,170.716009 C120.752357,169.059155 122.095503,167.716009 123.752357,167.716009 L196.41612,167.716009 Z M160.056027,77.2725585 C178.49771,77.2725585 194.438701,90.143072 198.325265,108.17056 L198.325265,108.17056 L192.175104,108.17056 C188.409779,93.5121204 175.213804,83.2507329 160.079537,83.2125653 C144.925386,83.2283587 131.701069,93.4937401 127.927546,108.17056 L127.927546,108.17056 L121.786788,108.17056 C125.673352,90.143072 141.614343,77.2725585 160.056027,77.2725585 Z" id="Combined-Shape" fill="#F48070" fill-rule="nonzero"></path>
        <path d="M160.031263,320 C119.050309,320 78.0784493,304.398902 46.8743539,273.187303 C16.6433969,242.953711 1.8189894e-12,202.751968 1.8189894e-12,160.001763 C1.8189894e-12,117.251558 16.6433969,77.0404112 46.8743539,46.8068194 C109.264355,-15.5975711 210.789076,-15.606975 273.197267,46.8068194 C335.605458,109.220614 335.596363,210.773509 273.197267,273.187303 C242.002267,304.389498 201.012217,319.990596 160.031263,320 M160.031263,12.4919278 C122.251662,12.4919278 84.4902498,26.8705162 55.7326427,55.637097 C27.8390371,83.5385175 12.5234741,120.589949 12.5234741,160.001763 C12.5234741,199.413578 27.8390371,236.465009 55.7326427,264.328814 C113.247857,321.852572 206.823764,321.852572 264.338978,264.328814 C321.854193,206.805056 321.854193,113.19847 264.338978,55.6653088 C235.590466,26.9081319 197.80177,12.5201395 160.031263,12.5201395" id="Shape" fill="#F48070" fill-rule="nonzero"></path>
    </g>
</svg>