<?xml version="1.0" encoding="UTF-8"?>
<svg width="331px" height="320px" viewBox="0 0 331 320" version="1.1" xmlns="http://www.w3.org/2000/svg" xmlns:xlink="http://www.w3.org/1999/xlink">
    <title>Logo / Bukit Logo Monogram - Teal</title>
    <g id="Logo-/-Bukit-Logo-Monogram---Teal" stroke="none" stroke-width="1" fill="none" fill-rule="evenodd">
        <g id="Monogram" transform="translate(0.000000, 0.000000)">
            <rect id="Rectangle" stroke="#7CCDCE" stroke-width="3" fill="#7CCDCE" fill-rule="nonzero" x="124.752357" y="169.716009" width="78.6637622" height="6.58274161" rx="3.2913708"></rect>
            <path d="M165.471316,320 C123.097268,320 80.7326239,304.398902 48.4677861,273.187303 C17.2091673,242.953711 0,202.751968 0,160.001763 C0,117.251558 17.2091673,77.0404112 48.4677861,46.8068194 C112.978654,-15.5975711 217.954575,-15.606975 282.48425,46.8068194 C347.013926,109.220614 347.004522,210.773509 282.48425,273.187303 C250.228816,304.389498 207.845364,319.990596 165.471316,320 M165.471316,12.4919278 C126.407447,12.4919278 87.3623851,26.8705162 57.6272008,55.637097 C28.7853887,83.5385175 12.9491931,120.589949 12.9491931,160.001763 C12.9491931,199.413578 28.7853887,236.465009 57.6272008,264.328814 C117.097569,321.852572 213.854467,321.852572 273.324835,264.328814 C332.795204,206.805056 332.795204,113.19847 273.324835,55.6653088 C243.599055,26.9081319 204.525782,12.5201395 165.471316,12.5201395" id="Shape" fill="#7CCDCE" fill-rule="nonzero"></path>
            <polygon id="Path" points="109.508609 234.828728 219.195892 234.828728 236.546118 126.006605 92.1583825 126.006605"></polygon>
            <path d="M196.59828,120.053926 L85.2088882,120.053926 L104.439898,240.781407 L224.28341,240.781407 L243.51442,120.053926 L196.59828,120.053926 Z M219.16768,234.781708 L109.508609,234.781708 L92.1583825,126.006605 L236.546118,126.006605 L219.16768,234.781708 Z" id="Shape" stroke="#7CCDCE" stroke-width="3" fill="#7CCDCE" fill-rule="nonzero"></path>
            <path d="M164.079537,82.2125653 C179.213804,82.2507329 192.409779,92.5121204 196.175104,107.17056 L202.325265,107.17056 C198.438701,89.143072 182.49771,76.2725585 164.056027,76.2725585 C145.614343,76.2725585 129.673352,89.143072 125.786788,107.17056 L131.927546,107.17056 C135.701069,92.4937401 148.925386,82.2283587 164.079537,82.2125653 L164.079537,82.2125653 Z" id="Path" stroke="#7CCDCE" stroke-width="3" fill="#7CCDCE" fill-rule="nonzero"></path>
        </g>
    </g>
</svg>