<svg id="Layer_1" data-name="Layer 1" xmlns="http://www.w3.org/2000/svg" viewBox="0 0 351.85 340.28"><defs><style>.cls-1,.cls-2{fill:#221f1f;}.cls-1{stroke:#221f1f;stroke-miterlimit:10;stroke-width:3px;}.cls-3{fill:none;}</style></defs><rect class="cls-1" x="132.66" y="180.47" width="83.65" height="7" rx="3.5"/><path class="cls-2" d="M176,340.28c-45.06,0-90.12-16.59-124.42-49.78C18.31,258.35,0,215.61,0,170.14S18.31,81.92,51.55,49.77c68.6-66.36,180.22-66.37,248.85,0s68.6,174.36,0,240.73C266.09,323.68,221,340.27,176,340.28m0-327c-41.54,0-83.07,15.29-114.69,45.87-30.63,29.64-47.51,69-47.51,111s16.88,81.31,47.51,110.94c63.25,61.17,166.14,61.18,229.38,0s63.23-160.71,0-221.89C259,28.62,217.5,13.32,176,13.32"/><polygon class="cls-3" points="116.45 249.71 233.1 249.71 251.54 133.99 98.01 133.99 116.45 249.71"/><path class="cls-1" d="M209.06,127.66H90.59L111.05,256H238.5L259,127.66h-49.9Zm24,122.05H116.45L98,134H251.54Z"/><path class="cls-1" d="M174.49,87.42A35.34,35.34,0,0,1,208.65,114h6.53a41.63,41.63,0,0,0-81.39,0h6.54A35.33,35.33,0,0,1,174.49,87.42Z"/></svg>