<svg xmlns="http://www.w3.org/2000/svg" width="351" height="151.133" viewBox="0 0 351 151.133">
    <defs>
        <style>
            .cls-1{fill:#fff}.cls-2{fill:#7ccdce}
        </style>
    </defs>
    <g id="Group_1511" transform="translate(-100 -536.867)">
        <g id="logo" transform="translate(2050 6558.867)">
            <g id="Logo_White_Teal_Dark_BG_Horizaontal_-_No_Tagline" transform="translate(-1950 -6022)">
                <g id="Header_Bukit_Title">
                    <path id="Path_454" d="M360.642 700.087a23.909 23.909 0 0 1 13.29 3.75 26.689 26.689 0 0 1 9.208 10.312 32.356 32.356 0 0 1 3.419 15.164 32.87 32.87 0 0 1-3.419 15.109 27.1 27.1 0 0 1-9.263 10.588 23.289 23.289 0 0 1-13.125 3.859 22.087 22.087 0 0 1-7.333-1.213 25.407 25.407 0 0 1-14.944-13.9l1.985-1.544v12.462a3.4 3.4 0 0 1-.937 2.427 3.122 3.122 0 0 1-2.371.992 3.389 3.389 0 0 1-3.419-3.418v-75.1a3.3 3.3 0 0 1 3.419-3.309 3.125 3.125 0 0 1 2.371.993 3.271 3.271 0 0 1 .937 2.317v36.944l-1.543-.883a20.574 20.574 0 0 1 3.253-6.231 24.389 24.389 0 0 1 5.017-4.908 23.266 23.266 0 0 1 6.287-3.254 22.2 22.2 0 0 1 7.168-1.157zm-.551 6.286a18.882 18.882 0 0 0-10.477 2.923 20.126 20.126 0 0 0-7.114 8.104 26.3 26.3 0 0 0-2.592 11.911 27.088 27.088 0 0 0 2.592 11.967 20.684 20.684 0 0 0 7.114 8.381 18.353 18.353 0 0 0 10.477 3.032A17.68 17.68 0 0 0 370.4 749.6a21.274 21.274 0 0 0 7.059-8.437 26.835 26.835 0 0 0 2.592-11.856 26.312 26.312 0 0 0-2.592-11.911 20.291 20.291 0 0 0-7.059-8.096 18.418 18.418 0 0 0-10.309-2.927z" class="cls-1" transform="translate(-204.967 -663.023)"/>
                    <path id="Path_455" d="M481.224 721.373a3.124 3.124 0 0 1 2.371.993 3.273 3.273 0 0 1 .938 2.316v31.1q0 10.919-6.176 16.654T461.7 778.17q-10.478 0-16.6-5.735t-6.122-16.654v-31.1a3.174 3.174 0 0 1 .993-2.316 3.3 3.3 0 0 1 2.426-.993 3.124 3.124 0 0 1 2.371.993 3.272 3.272 0 0 1 .938 2.316v31.1q0 7.941 4.246 12.077t11.745 4.136q7.61 0 11.856-4.136t4.246-12.077v-31.1a3.3 3.3 0 0 1 3.419-3.309z" class="cls-1" transform="translate(-250.776 -682.656)"/>
                    <path id="Path_456" d="M541.373 757.682a3.115 3.115 0 0 1-2.371-.993 3.26 3.26 0 0 1-.938-2.316v-74.994a3.263 3.263 0 0 1 .938-2.316 3.33 3.33 0 0 1 4.742 0 3.272 3.272 0 0 1 .937 2.316v74.994a3.269 3.269 0 0 1-.937 2.316 3.124 3.124 0 0 1-2.371.993zm37.386-56.577a3.1 3.1 0 0 1 2.316 1.048 3.242 3.242 0 0 1 .993 2.26 3.346 3.346 0 0 1-1.213 2.536L543.8 738.492l-.331-7.83 33.086-28.454a2.929 2.929 0 0 1 2.204-1.103zm.993 56.577a3.338 3.338 0 0 1-2.537-1.214l-25.034-26.689 4.963-4.521 24.925 26.579a3.683 3.683 0 0 1 .993 2.536 2.838 2.838 0 0 1-1.213 2.427 3.788 3.788 0 0 1-2.097.882z" class="cls-1" transform="translate(-293.899 -662.939)"/>
                    <path id="Path_457" d="M629.3 698.808a5.027 5.027 0 0 1-3.474-1.048 3.881 3.881 0 0 1-1.158-3.033v-1.1a3.708 3.708 0 0 1 1.269-3.033 5.291 5.291 0 0 1 3.474-1.048 4.681 4.681 0 0 1 3.253 1.048 3.882 3.882 0 0 1 1.158 3.033v1.1a3.88 3.88 0 0 1-1.158 3.033 4.849 4.849 0 0 1-3.364 1.048zm3.309 61.428a3.394 3.394 0 0 1-3.309 3.309 3.077 3.077 0 0 1-2.427-.993 3.369 3.369 0 0 1-.882-2.316v-50.731a3.264 3.264 0 0 1 .938-2.316 3.328 3.328 0 0 1 4.742 0 3.274 3.274 0 0 1 .937 2.316z" class="cls-1" transform="translate(-331.591 -668.802)"/>
                    <path id="Path_458" d="M653.776 709.2h25.7a2.908 2.908 0 0 1 2.205.937 3.185 3.185 0 0 1 .883 2.261 3.016 3.016 0 0 1-3.088 3.089h-25.7a3.2 3.2 0 0 1-3.2-3.2 2.907 2.907 0 0 1 .938-2.206 3.182 3.182 0 0 1 2.262-.881zm11.36-15.551a3.123 3.123 0 0 1 2.371.993 3.268 3.268 0 0 1 .937 2.316v55.363a10.127 10.127 0 0 0 .827 4.632 4.111 4.111 0 0 0 2.151 2.04 7.489 7.489 0 0 0 2.646.5 4.419 4.419 0 0 0 1.6-.276 4.434 4.434 0 0 1 1.6-.276 2.26 2.26 0 0 1 1.71.771 2.807 2.807 0 0 1 .717 1.986 3.024 3.024 0 0 1-1.765 2.591 8.053 8.053 0 0 1-4.19 1.048q-.993 0-2.978-.166a11.188 11.188 0 0 1-4.08-1.213 8.392 8.392 0 0 1-3.529-3.695 16.264 16.264 0 0 1-1.434-7.61v-55.699a3.171 3.171 0 0 1 .993-2.316 3.3 3.3 0 0 1 2.424-.993z" class="cls-1" transform="translate(-342.868 -670.587)"/>
                    <path id="Path_459" d="M162.09 761.8a57.159 57.159 0 0 1-39.848-15.94 53.262 53.262 0 0 1 0-77.1c21.97-21.252 57.72-21.256 79.7 0a53.328 53.328 0 0 1 0 77.1 57.191 57.191 0 0 1-39.852 15.94m0-104.713a52.684 52.684 0 0 0-36.73 14.692 49.093 49.093 0 0 0 0 71.064c20.255 19.589 53.207 19.591 73.459 0a49.154 49.154 0 0 0 0-71.064 52.7 52.7 0 0 0-36.73-14.692" class="cls-2" transform="translate(-105.734 -652.818)"/>
                    <path id="Path_460" d="M205.935 738.565c-.771 14.32-21.44 14.364-22.214 0-.084-1.557-2.517-1.567-2.432 0 .941 17.466 26.138 17.475 27.079 0 .084-1.564-2.348-1.56-2.432 0z" class="cls-1" transform="translate(-138.617 -689.628)"/>
                    <path id="Path_461" d="M174.086 760.325h37.942l-6.552-41.114h-40.818l-6.552 41.114h15.98zm-7.7-39.088h37.358l5.907 37.061h-49.17z" class="cls-2" transform="translate(-128.528 -681.715)"/>
                    <path id="Path_462" d="M182.235 702.806h2.518c3.221-9.849 17.762-9.874 20.978 0h2.515c-3.494-12.987-22.518-12.992-26.011 0z" class="cls-1" transform="translate(-139.03 -670.335)"/>
                </g>
            </g>
        </g>
        <text id="text" fill="rgba(255,255,255,0.87)" font-family="Quicksand-Regular, Quicksand" font-size="30px" letter-spacing="0.002em" transform="translate(229 680)">
            <tspan x="0" y="0">Merchant Portal</tspan>
        </text>
    </g>
</svg>
