<svg xmlns="http://www.w3.org/2000/svg" width="16" height="16.001" viewBox="0 0 16 16.001">
    <path fill="#bcbcbc" d="M5424.96 1288.38q-2.455-2.458-4.913-4.914l3.372-3.371q.773-.771 1.541-1.543a1.807 1.807 0 0 0-2.554-2.555q-2.454 2.457-4.914 4.914-1.683-1.685-3.37-3.371l-1.545-1.543a1.807 1.807 0 0 0-2.554 2.554l4.914 4.914q-1.687 1.686-3.371 3.372l-1.543 1.543a1.807 1.807 0 0 0 2.554 2.555l4.915-4.914 3.373 3.371q.773.772 1.541 1.544a1.807 1.807 0 0 0 2.554-2.556z" transform="translate(-5409.492 -1275.466)"/>
</svg>
