<svg xmlns="http://www.w3.org/2000/svg" width="47.769" height="47.769" viewBox="0 0 47.769 47.769">
    <defs>
        <filter id="BG_Copy_5" width="47.769" height="47.769" x="0" y="0" filterUnits="userSpaceOnUse">
            <feOffset dy="1"/>
            <feGaussianBlur result="blur" stdDeviation="1.5"/>
            <feFlood flood-opacity=".2"/>
            <feComposite in2="blur" operator="in"/>
            <feComposite in="SourceGraphic"/>
        </filter>
        <style>
            .cls-2{fill:#6cc4c3}
        </style>
    </defs>
    <g id="Group_1234" transform="translate(-1260.989 -81.23)">
        <g filter="url(#BG_Copy_5)" transform="translate(1260.99 81.23)">
            <rect id="BG_Copy_5-2" width="38.769" height="38.769" fill="#fff" rx="19.385" transform="translate(4.5 3.5)"/>
        </g>
        <path id="Path_531" d="M410.839-94.954a.576.576 0 0 0-.558-.022.51.51 0 0 0-.281.439 3.581 3.581 0 0 1-3.662 3.544 3.577 3.577 0 0 1-3.653-3.544.531.531 0 0 0-.576-.5.471.471 0 0 0-.468.512 4.6 4.6 0 0 0 4.7 4.548 4.6 4.6 0 0 0 4.7-4.548.461.461 0 0 0-.202-.429z" class="cls-2" transform="translate(879.162 196.66)"/>
        <path id="Path_532" d="M407.76-102.981h-14.03l-2.257 14.163h18.544l-2.242-14.071zm-15.225 13.256l1.968-12.35h12.484l1.968 12.35z" class="cls-2" transform="translate(884.872 201.121)"/>
        <path id="Path_533" d="M403.074-110.974a3.53 3.53 0 0 1 3.438-2.42 3.522 3.522 0 0 1 3.429 2.42l.024.075h1.07l-.037-.137a4.51 4.51 0 0 0-4.493-3.367 4.509 4.509 0 0 0-4.491 3.367l-.037.137h1.071z" class="cls-2" transform="translate(879.328 207.568)"/>
    </g>
</svg>
