<svg xmlns="http://www.w3.org/2000/svg" width="116.89" height="37.5" viewBox="0 0 116.89 37.5">
    <defs>
        <style>
            .cls-1{fill:#fff}.cls-2{fill:#7ccdce}
        </style>
    </defs>
    <g id="Group_1216" transform="translate(1950 6022)">
        <g id="Logo_White_Teal_Dark_BG_Horizaontal_-_No_Tagline" transform="translate(-1950 -6022)">
            <g id="Header_Bukit_Title">
                <path id="Path_454" d="M342.993 684.462a8.227 8.227 0 0 1 4.573 1.291 9.184 9.184 0 0 1 3.169 3.548 11.134 11.134 0 0 1 1.177 5.218 11.311 11.311 0 0 1-1.177 5.2 9.325 9.325 0 0 1-3.188 3.643 8.013 8.013 0 0 1-4.516 1.328 7.6 7.6 0 0 1-2.523-.417 8.743 8.743 0 0 1-5.142-4.782l.683-.531v4.288a1.172 1.172 0 0 1-.323.835 1.074 1.074 0 0 1-.816.341 1.166 1.166 0 0 1-1.176-1.176V677.4a1.135 1.135 0 0 1 1.176-1.139 1.075 1.075 0 0 1 .816.342 1.125 1.125 0 0 1 .323.8v12.713l-.531-.3a7.079 7.079 0 0 1 1.119-2.144 8.391 8.391 0 0 1 1.726-1.689 8 8 0 0 1 2.163-1.12 7.637 7.637 0 0 1 2.467-.401zm-.19 2.163a6.5 6.5 0 0 0-3.605 1.006 6.925 6.925 0 0 0-2.448 2.789 9.051 9.051 0 0 0-.892 4.1 9.321 9.321 0 0 0 .892 4.118 7.118 7.118 0 0 0 2.448 2.884 6.315 6.315 0 0 0 3.605 1.043 6.084 6.084 0 0 0 3.548-1.063 7.32 7.32 0 0 0 2.429-2.9 9.234 9.234 0 0 0 .892-4.08 9.054 9.054 0 0 0-.892-4.1 6.982 6.982 0 0 0-2.429-2.789 6.338 6.338 0 0 0-3.551-1.008z" class="cls-1" transform="translate(-289.424 -671.708)"/>
                <path id="Path_455" d="M453.519 721.373a1.075 1.075 0 0 1 .816.342 1.126 1.126 0 0 1 .323.8v10.7a7.438 7.438 0 0 1-2.125 5.731 9.279 9.279 0 0 1-11.442 0 7.473 7.473 0 0 1-2.107-5.731v-10.7a1.092 1.092 0 0 1 .342-.8 1.136 1.136 0 0 1 .835-.342 1.075 1.075 0 0 1 .816.342 1.126 1.126 0 0 1 .323.8v10.7a5.025 5.025 0 0 0 5.5 5.579 5.6 5.6 0 0 0 4.08-1.423 5.546 5.546 0 0 0 1.461-4.156v-10.7a1.135 1.135 0 0 1 1.176-1.139z" class="cls-1" transform="translate(-374.22 -708.05)"/>
                <path id="Path_456" d="M539.2 704.154a1.072 1.072 0 0 1-.816-.342 1.122 1.122 0 0 1-.323-.8v-25.803a1.123 1.123 0 0 1 .323-.8 1.146 1.146 0 0 1 1.632 0 1.126 1.126 0 0 1 .322.8v25.806a1.125 1.125 0 0 1-.322.8 1.075 1.075 0 0 1-.816.339zm12.865-19.468a1.066 1.066 0 0 1 .8.361 1.116 1.116 0 0 1 .342.778 1.151 1.151 0 0 1-.417.873l-12.753 10.852-.114-2.694 11.385-9.791a1.008 1.008 0 0 1 .759-.38zm.342 19.468a1.149 1.149 0 0 1-.873-.418l-8.614-9.184 1.709-1.552 8.577 9.146a1.267 1.267 0 0 1 .342.873.977.977 0 0 1-.417.835 1.3 1.3 0 0 1-.722.3z" class="cls-1" transform="translate(-454.045 -671.552)"/>
                <path id="Path_457" d="M626.261 692.732a1.73 1.73 0 0 1-1.2-.361 1.336 1.336 0 0 1-.4-1.044v-.379a1.276 1.276 0 0 1 .437-1.044 1.821 1.821 0 0 1 1.2-.361 1.611 1.611 0 0 1 1.12.361 1.336 1.336 0 0 1 .4 1.044v.379a1.335 1.335 0 0 1-.4 1.044 1.668 1.668 0 0 1-1.157.361zm1.139 21.138a1.168 1.168 0 0 1-1.139 1.139 1.059 1.059 0 0 1-.835-.342 1.159 1.159 0 0 1-.3-.8v-17.454a1.123 1.123 0 0 1 .323-.8 1.145 1.145 0 0 1 1.632 0 1.127 1.127 0 0 1 .323.8z" class="cls-1" transform="translate(-523.818 -682.407)"/>
                <path id="Path_458" d="M651.678 699h8.843a1 1 0 0 1 .759.322 1.1 1.1 0 0 1 .3.778 1.038 1.038 0 0 1-1.063 1.063h-8.843a1.1 1.1 0 0 1-1.1-1.1 1 1 0 0 1 .323-.759 1.1 1.1 0 0 1 .781-.304zm3.909-5.351a1.074 1.074 0 0 1 .816.342 1.124 1.124 0 0 1 .323.8v19.051a3.485 3.485 0 0 0 .285 1.594 1.415 1.415 0 0 0 .74.7 2.578 2.578 0 0 0 .911.171 1.521 1.521 0 0 0 .55-.095 1.526 1.526 0 0 1 .55-.095.777.777 0 0 1 .588.265.966.966 0 0 1 .247.683 1.041 1.041 0 0 1-.607.892 2.772 2.772 0 0 1-1.442.361q-.342 0-1.025-.057a3.851 3.851 0 0 1-1.4-.417 2.888 2.888 0 0 1-1.214-1.271 5.6 5.6 0 0 1-.493-2.619v-19.17a1.091 1.091 0 0 1 .342-.8 1.134 1.134 0 0 1 .829-.339z" class="cls-1" transform="translate(-544.693 -685.711)"/>
                <path id="Path_459" d="M125.127 690.318a19.669 19.669 0 0 1-13.712-5.485 18.328 18.328 0 0 1 0-26.529 19.882 19.882 0 0 1 27.424 0 18.35 18.35 0 0 1 0 26.529 19.68 19.68 0 0 1-13.712 5.485m0-36.032a18.129 18.129 0 0 0-12.639 5.056 16.893 16.893 0 0 0 0 24.453 18.326 18.326 0 0 0 25.278 0 16.914 16.914 0 0 0 0-24.453 18.136 18.136 0 0 0-12.639-5.056" class="cls-2" transform="translate(-105.734 -652.818)"/>
                <path id="Path_460" d="M189.768 737.8a3.824 3.824 0 0 1-7.644 0c-.029-.536-.866-.539-.837 0a4.661 4.661 0 0 0 9.318 0c.029-.538-.808-.537-.837 0z" class="cls-1" transform="translate(-166.603 -720.957)"/>
                <path id="Path_461" d="M163.6 733.359h13.056l-2.255-14.148h-14.04l-2.255 14.148h5.5zm-2.649-13.45h12.855l2.033 12.753h-16.92z" class="cls-2" transform="translate(-147.928 -706.308)"/>
                <path id="Path_462" d="M182.235 696.416h.866a3.832 3.832 0 0 1 7.219 0h.866a4.663 4.663 0 0 0-8.951 0z" class="cls-1" transform="translate(-167.368 -685.243)"/>
            </g>
        </g>
    </g>
</svg>
