<svg xmlns="http://www.w3.org/2000/svg" width="12.92" height="13.487" viewBox="0 0 12.92 13.487">
    <defs>
        <style>
            .cls-1{fill:#f48070;stroke:#f48070;stroke-width:.3px}
        </style>
    </defs>
    <g id="Group_1881" transform="translate(-6.895 -6.073)">
        <path id="Path_536" d="M402.513-102.981H393l-1.53 9.742h12.57l-1.52-9.679zm-10.319 9.118l1.334-8.495h8.462l1.334 8.495z" class="cls-1" transform="translate(-384.402 112.649)"/>
        <path id="Path_537" d="M402.725-112.031a2.408 2.408 0 0 1 2.343-1.673 2.4 2.4 0 0 1 2.337 1.673l.017.052h.729l-.025-.1a3.08 3.08 0 0 0-3.062-2.328 3.08 3.08 0 0 0-3.06 2.328l-.025.1h.73z" class="cls-1" transform="translate(-391.785 120.626)"/>
    </g>
</svg>
