<svg xmlns="http://www.w3.org/2000/svg" width="42" height="42" viewBox="0 0 42 42">
    <defs>
        <style>
            .cls-2{fill:#7ccdce}
        </style>
    </defs>
    <g id="Group_1240" transform="translate(-322 -546)">
        <path id="Rectangle_366" fill="none" d="M0 0H42V42H0z" transform="translate(322 546)"/>
        <path id="Path_584" d="M4019.446 1084.97c.345-2.955 2.693-4.48 4.594-6.276a2.935 2.935 0 0 1 4.005.147q2.361 2.223 4.582 4.594a3.035 3.035 0 0 1 .146 4.007 16.2 16.2 0 0 1-1.319 1.446c-.432.455-.878.9-1.479 1.512.8 1.124 1.562 2.352 2.478 3.452a21.149 21.149 0 0 0 6.157 5.253.713.713 0 0 0 1.023-.172c.65-.7 1.337-1.368 2.047-2.007a2.982 2.982 0 0 1 4.228-.12c1.622 1.464 3.166 3.025 4.635 4.643a2.909 2.909 0 0 1 .169 3.94 31.73 31.73 0 0 1-3.652 3.681 8.269 8.269 0 0 1-2.228.984h-1.813a26.648 26.648 0 0 1-2.9-.713c-8.487-3.089-14.576-8.87-18.7-16.814a19.515 19.515 0 0 1-1.975-6.2zm24.631 23.157a3.049 3.049 0 0 0 2.336-.933q1.211-1.191 2.388-2.417a1.49 1.49 0 0 0-.022-2.47q-1.858-1.879-3.738-3.738c-.876-.871-1.486-.87-2.383.012-.754.741-1.492 1.5-2.247 2.239a1.468 1.468 0 0 1-2.09.29 20.769 20.769 0 0 1-6.744-5.359 37.038 37.038 0 0 1-3.229-4.693c-.586-.963-.4-1.416.394-2.192.756-.739 1.516-1.474 2.25-2.235a1.325 1.325 0 0 0 .015-2.164q-1.937-2.012-3.939-3.963c-.812-.79-1.459-.762-2.295.046-.8.77-1.568 1.565-2.345 2.354a3.086 3.086 0 0 0-1 2.582 15.709 15.709 0 0 0 .7 3.667 31.464 31.464 0 0 0 16.475 17.574 12.978 12.978 0 0 0 5.474 1.4z" class="cls-2" transform="translate(-3693.316 -526.382)"/>
        <path id="Path_585" d="M4138.939 1065.276a35.666 35.666 0 0 1 4.17 1.386 17.971 17.971 0 0 1 10.51 13.314 1.105 1.105 0 0 0 .129.26v.453c-.3.419-.611.786-1.214.637s-.668-.635-.791-1.139c-1.708-7.035-6.059-11.39-13.157-12.981a1.54 1.54 0 0 1-.932-.824c-.208-.521.256-.852.68-1.106z" class="cls-2" transform="translate(-3793.619 -515.604)"/>
        <path id="Path_586" d="M4137.032 1106.226a11.172 11.172 0 0 1 9.091 8.783c.154.732-.086 1.25-.658 1.37-.633.133-1.055-.17-1.222-.9a9.053 9.053 0 0 0-7.291-7.315c-.6-.14-1.042-.418-.941-1.117a.908.908 0 0 1 1.021-.821z" class="cls-2" transform="translate(-3792.256 -550.366)"/>
    </g>
</svg>
