<?xml version="1.0" encoding="utf-8"?>
<!-- Generator: Adobe Illustrator 22.0.1, SVG Export Plug-In . SVG Version: 6.00 Build 0)  -->
<svg version="1.1" id="Layer_1" xmlns="http://www.w3.org/2000/svg" xmlns:xlink="http://www.w3.org/1999/xlink" x="0px" y="0px"
	 viewBox="0 0 354.2 342.7" style="enable-background:new 0 0 354.2 342.7;" xml:space="preserve">
<style type="text/css">
	.st0{fill:#BFBFBF;}
</style>
<g id="Layer_2_1_">
	<g id="Layer_1-2">
		<path class="st0" d="M218,113.7c-5-23.3-27.9-38.1-51.2-33.1c-16.6,3.6-29.6,16.5-33.1,33.1l-0.4,1.8h9.6l0.3-1.1
			c4.6-18.1,23-29,41-24.4c12,3.1,21.3,12.4,24.4,24.4l0.3,1.1h9.6L218,113.7z"/>
		<path class="st0" d="M176.8,342.7c-71.3-0.1-136.6-42-163-104.6C-19.9,158.3,9.9,69,85.1,25.1c36-21,75-29.3,116.2-23
			C272.7,13.1,323,52,345.9,121.3c27.6,83.7-16,170.8-94.7,205.7C227.8,337.4,202.4,342.8,176.8,342.7z M339.7,171.7
			c0.2-18.3-2.7-36.2-9.5-53.2c-23.5-58.8-67.4-93-129.5-102.5c-49.6-7.6-94.7,5.4-132.6,38.6c-40.8,35.7-59,81.4-52.7,135.3
			C21.2,239.7,47,278,89.5,304.1c43.2,26.6,89.7,31.5,138.3,17C293.3,301.6,339.6,239.9,339.7,171.7L339.7,171.7z"/>
		<path class="st0" d="M89.2,127.1h173.2c-1.2,7.6-2.4,15.1-3.6,22.6c-4.1,26-8.2,52-12.4,78c-1.4,9.1-3.2,18.2-4.4,27.4
			c-0.5,4-2.1,4.6-5.6,4.5c-14.6-0.2-29.1-0.1-43.7-0.1c-26.1,0-52.2-0.1-78.3,0.1c-3.4,0-4.4-0.9-4.9-4.3
			c-4.2-27.3-8.6-54.6-13-81.9C94.1,158.1,91.7,142.7,89.2,127.1z M250.8,137.1H100.7c6,37.6,11.9,74.9,17.9,112.1
			c0.5,0.2,0.9,0.4,1.4,0.4c36.8,0,73.7,0,110.5-0.1c1,0,2.6-1.6,2.9-2.7c0.9-4,1.4-8.1,2-12.1c4.1-25.7,8.2-51.4,12.3-77.2
			C248.7,150.9,249.7,144.1,250.8,137.1L250.8,137.1z"/>
		<path class="st0" d="M176.6,187.6c12.6,0,25.1-0.1,37.7,0.1c2.1,0.3,4.1,1.3,5.5,2.9c0.8,0.9,0.6,3.5-0.2,4.6
			c-1.1,1.4-2.7,2.3-4.5,2.5c-25.4,0.1-50.8,0.1-76.2,0.1c-3.2,0-5.3-1.5-5.5-4.9c-0.1-3.2,1.9-5.3,5.5-5.3
			C151.5,187.5,164.1,187.6,176.6,187.6z"/>
		<path class="st0" d="M171.7,192.9c0-12.6-0.1-25.1,0.1-37.7c0.3-2.1,1.3-4.1,2.9-5.5c0.9-0.8,3.5-0.6,4.6,0.2
			c1.4,1.1,2.3,2.7,2.5,4.5c0.1,25.4,0.1,50.8,0.1,76.2c0,3.2-1.5,5.3-4.9,5.5c-3.2,0.1-5.3-1.9-5.3-5.5
			C171.7,218,171.7,205.5,171.7,192.9z"/>
	</g>
</g>
</svg>
