<svg xmlns="http://www.w3.org/2000/svg" width="37.5" height="37.5" viewBox="0 0 37.5 37.5">
    <defs>
        <style>
            .cls-2{fill:#f48070;stroke:#f48070;stroke-width:.3px}
        </style>
    </defs>
    <g id="Group_1894" transform="translate(-6.5 -5)">
        <path id="Path_534" fill="#fff" d="M18.75 0A18.75 18.75 0 1 1 0 18.75 18.75 18.75 0 0 1 18.75 0z" transform="translate(6.5 5)"/>
        <path id="Path_535" d="M413.461-94.93a.741.741 0 0 0-.717-.028.655.655 0 0 0-.361.564 4.6 4.6 0 0 1-4.705 4.554 4.6 4.6 0 0 1-4.694-4.554.682.682 0 0 0-.74-.643.6.6 0 0 0-.6.658 5.907 5.907 0 0 0 6.042 5.844 5.906 5.906 0 0 0 6.04-5.844.592.592 0 0 0-.265-.551z" class="cls-2" transform="translate(-382.505 117.002)"/>
        <path id="Path_536" d="M412.4-102.981h-18.027l-2.9 18.2H415.3l-2.882-18.081zm-19.562 17.035l2.529-15.87h16.042l2.529 15.87z" class="cls-2" transform="translate(-378.066 120.47)"/>
        <path id="Path_537" d="M403.394-109.973a4.561 4.561 0 0 1 4.442-3.126 4.55 4.55 0 0 1 4.43 3.126l.032.1h1.382l-.048-.177a5.827 5.827 0 0 0-5.8-4.35 5.826 5.826 0 0 0-5.8 4.35l-.048.177h1.384z" class="cls-2" transform="translate(-382.652 125.456)"/>
    </g>
</svg>
