<svg xmlns="http://www.w3.org/2000/svg" width="39.01" height="24.61" viewBox="0 0 39.01 24.61">
    <defs>
        <style>
            .cls-1{fill:#315881;fill-rule:evenodd}
        </style>
    </defs>
    <g id="Group_1362" transform="translate(-683.834 -816.365)">
        <path id="Path_611" d="M41.844 40.168c0-1.874-.974-2.8-2.863-2.8H5.7a2.646 2.646 0 0 0-2.1.767 2.726 2.726 0 0 0-.767 2.036v19a2.748 2.748 0 0 0 .767 2.037 2.842 2.842 0 0 0 2.1.767h33.281c1.889 0 2.863-.944 2.863-2.8zm-2.863-2.361a2.1 2.1 0 0 1 2.361 2.361v19a2.089 2.089 0 0 1-2.361 2.36H5.7a2.277 2.277 0 0 1-2.42-2.361v-19a2.107 2.107 0 0 1 2.42-2.359z" class="cls-1" transform="translate(681 779)"/>
        <path id="Path_612" d="M12.011 44.724a1.754 1.754 0 0 0-1.254.325 2.121 2.121 0 0 0-.28 1.269v4.116H46.3v-4.117a1.4 1.4 0 0 0-1.594-1.593z" class="cls-1" transform="translate(674.95 773.175)"/>
        <path id="Path_613" fill="#dfa43b" fill-rule="evenodd" d="M10.477 124.481c0 1.091.516 1.652 1.534 1.652h32.695a1.439 1.439 0 0 0 1.594-1.652v-4.116H10.477z" transform="translate(674.95 713.307)"/>
        <path id="Path_614" d="M40.877 77a.758.758 0 0 1-.1.443l-2.582 4.5-.162-5.489H33.9l1.387.664a1.132 1.132 0 0 1 .6.989l.383 5.828h2.021l4.84-7.481h-2.476a.734.734 0 0 1 .222.546zm16.7-.325l.162-.221h-2.521c.088.088.118.133.118.162a2.833 2.833 0 0 1-.118.28l-3.674 6.7c-.088.118-.177.221-.28.34h2.08l-.1-.221a3.172 3.172 0 0 1 .325-1.047l.443-.826h2.139c.089.694.148 1.269.177 1.7l-.177.4h2.582l-.384-.561-.767-6.7zm-1.535 4.116h-1.533l1.313-2.523zM49.67 76.07a3.4 3.4 0 0 0-2.08.664 1.676 1.676 0 0 0-.99 1.476 2.368 2.368 0 0 0 .708 1.756l1.431.988c.516.369.767.694.767.989a.9.9 0 0 1-.384.723 1.382 1.382 0 0 1-.885.28 6.9 6.9 0 0 1-2.624-1.046v1.37a5.432 5.432 0 0 0 2.788.871 3.229 3.229 0 0 0 2.2-.767 1.936 1.936 0 0 0 .221-3.231l-1.372-.989c-.457-.369-.708-.694-.708-.944 0-.575.339-.871 1.033-.871a4.639 4.639 0 0 1 2.095.826l.281-1.431a4.916 4.916 0 0 0-2.479-.664zm-5.488 7.864c-.03-.31-.089-.59-.118-.885L45.937 77l.443-.546h-2.7c.03.133.059.31.089.443a2.3 2.3 0 0 1-.03.443l-1.874 5.99-.384.605h2.7z" class="cls-1" transform="translate(656.413 748.365)"/>
    </g>
</svg>
