<svg xmlns="http://www.w3.org/2000/svg" width="121.563" height="71.743" viewBox="0 0 121.563 71.743">
    <path fill="none" stroke="#221f1f" stroke-width="5px" d="M2604.09-920.315a12.187 12.187 0 0 1-8.776 6.851 11.306 11.306 0 0 1-9.6-2.126 20.822 20.822 0 0 1-3.436-3.851 1.767 1.767 0 0 0-1.707-.921 7.861 7.861 0 0 1-6.935-2.88 7.829 7.829 0 0 1-1.753-5.152q-.025-21.743 0-43.486a7.6 7.6 0 0 1 6.048-7.744 26.65 26.65 0 0 1 5.523-.29c6.146-.009 12.293.058 18.439.056 7.428 0 14.855-.059 22.285-.064 6.185 0 12.37.028 18.555.051 2.528.01 5.058-.008 7.584.065a7.372 7.372 0 0 1 6.225 3.772c4.123 6.548 8.185 13.135 12.313 19.678a2.239 2.239 0 0 0 1.4.916 20.7 20.7 0 0 1 17.826 17.275 51.557 51.557 0 0 1 .129 11.33c-.288 3.727-3.681 6.417-7.425 6.489a10.244 10.244 0 0 1-1.252-.007 1.3 1.3 0 0 0-1.406.812 11.78 11.78 0 0 1-10.763 6.31 11.855 11.855 0 0 1-10.738-6.384l-.411-.7zm59.286-29.868a3.733 3.733 0 0 0-.185-.439q-6.52-10.459-13.069-20.9a1.494 1.494 0 0 0-1.1-.485c-2.8-.04-5.608-.024-8.414-.018a7.948 7.948 0 0 0-.813.079v21.763zm-70.386 19.593a5.11 5.11 0 0 0-5.187 5.147 5.241 5.241 0 0 0 5.135 5.021 5.187 5.187 0 0 0 5.115-5.151 5.1 5.1 0 0 0-5.062-5.018zm74.412 0a5.126 5.126 0 0 0-5.147 5.082 5.242 5.242 0 0 0 5.183 5.085 5.177 5.177 0 0 0 5.071-5.085 5.249 5.249 0 0 0-1.212-3.28 4.543 4.543 0 0 0-3.897-1.803z" transform="translate(-2569.375 982.422)"/>
</svg>
