<svg xmlns="http://www.w3.org/2000/svg" width="73.38" height="73.822" viewBox="0 0 73.38 73.822">
    <defs>
        <style>
            .cls-1{stroke:#221f1f}
        </style>
    </defs>
    <g id="Group_1198" transform="translate(-4325.155 -1120.718)">
        <path id="Path_294" d="M4352.616 1134.884l-3.951-4.29c12.888-12.469 36.513-13.316 50.944 2.425 14.39 15.694 12.915 42.822-8.656 56.208l2.34 4.579-14.591-3.442 6.962-10.667c.782 1.3 1.468 2.451 2.312 3.858 8.969-5.537 14.095-13.442 14.81-23.708.855-12.261-4.182-22.083-14.822-28.254-12.249-7.105-24.139-5.305-35.348 3.291z" class="cls-1" transform="translate(-11.045)"/>
        <path id="Path_295" d="M4388.561 1144.66h2.422a9.044 9.044 0 0 1 .18 1.261c.014 6.1.054 12.208-.01 18.311-.026 2.42 1.18 3.422 3.418 3.435 4.279.026 8.559.008 12.975.008v4c-3.92 0-7.772-.087-11.616.047a12.086 12.086 0 0 0-4.077 1.008c-1.912.79-3.59.667-4.846-.978-1.272-1.664-.935-3.264.465-4.861a4.808 4.808 0 0 0 1.042-2.892c.092-6.352.047-12.699.047-19.339z" class="cls-1" transform="translate(-29.222 -11.346)"/>
        <path id="Path_296" d="M4331.863 1165.345l-6.018-1.7 5.814-13.116 5.136 3.552c-1.653 3.774-3.217 7.35-4.932 11.264z" class="cls-1" transform="translate(0 -14.187)"/>
        <path id="Path_297" d="M4336.28 1225.953c-1.82-2.857-3.5-5.488-5.356-8.4l5.156-3.583 4.88 8z" class="cls-1" transform="translate(-2.458 -44.894)"/>
        <path id="Path_298" d="M4356.673 1238.539l7.336 4.159-2.261 5.739-8.666-4.794z" class="cls-1" transform="translate(-13.184 -56.788)"/>
        <path id="Path_299" d="M4383.377 1255.67l.954-5.852c5.79-.908 7.094.039 8.105 6.28z" class="cls-1" transform="translate(-27.848 -62.105)"/>
    </g>
</svg>
