<svg xmlns="http://www.w3.org/2000/svg" id="Group_1213" width="48.65" height="30.673" viewBox="0 0 48.65 30.673">
    <defs>
        <style>
            .cls-1{fill:#9a9a9a}
        </style>
    </defs>
    <path id="Path_30" d="M5077.831 1071.8a21.556 21.556 0 0 1-25.645 8.963 2.241 2.241 0 0 0-1.493.013 15.3 15.3 0 0 1-21.333-12.064 1.4 1.4 0 0 0-.178-.373v-3.244c.279-1.1.492-2.227.85-3.3a15.295 15.295 0 0 1 28.279-1.774 1.472 1.472 0 0 0 1.5 1 21.373 21.373 0 0 1 17.558 9.582c.138.2.308.369.462.553zm-6.175-.232c0-1.368.036-2.737-.024-4.1a1.589 1.589 0 0 0-.51-1.069c-6.392-4.986-16.634-5.01-23.13-.048a1.783 1.783 0 0 0-.609 1.22q-.081 3.994 0 7.989a1.754 1.754 0 0 0 .644 1.2 19.812 19.812 0 0 0 22.806.178 1.657 1.657 0 0 0 .84-1.588c-.066-1.262-.016-2.524-.017-3.784zm-28.015-5.666v-12.916a13.553 13.553 0 0 0-8.228 3.491 15.779 15.779 0 0 1 3.934 9.425zm10-9.449a13.534 13.534 0 0 0-8.213-3.455v12.953a2.041 2.041 0 0 0 .576-.133c1.27-.81 2.538-1.625 3.784-2.47a1.286 1.286 0 0 0 .477-.668 16.215 16.215 0 0 1 3.373-6.229zm-18.246 20.535a13.677 13.677 0 0 0 8.326 3.441c0-1.493-.029-2.857.011-4.218a2.822 2.822 0 0 0-.685-1.941c-2.349-3.044-2.358-2.37-.106-5.371.3-.4.57-.81.961-1.368h-4.554a15.854 15.854 0 0 1-3.955 9.455zm2.3-11.1a13.252 13.252 0 0 0-3.443-8.287 13.053 13.053 0 0 0-3.377 8.287zm-3.429 9.946a13.157 13.157 0 0 0 3.408-8.294h-6.808a13.128 13.128 0 0 0 3.396 8.296zm17.574-13.547l5.317-1.265-2.4-3.7zm-6.307 12.477l.207-.171v-6.183a17.8 17.8 0 0 0-2.525 2.808.687.687 0 0 0 .005.644c.744.986 1.533 1.938 2.309 2.904zm28.024-6.39l-.221.1v6.5l2.824-3.441c-.927-1.117-1.767-2.133-2.607-3.157zm-24.111 11.3l-4.019-2.781v3.654z" class="cls-1" transform="translate(-5029.181 -1051.391)"/>
    <path id="Path_31" d="M5124.56 1135.613h-2.007c-.409.619.232 1.927-1.039 1.771-.411-.051-.713-.995-1.065-1.53l.233-.23a6.418 6.418 0 0 1-1.469-.114c-.312-.095-.541-.46-.807-.7.277-.279.511-.691.844-.8a4.672 4.672 0 0 1 1.406-.033c.261-.718-.207-1.907.955-1.855.379.017.716.988 1.072 1.523l-.239.244h2.184c.271-.636-.221-1.795.888-1.763.4.011.77 1.007 1.153 1.553l-.251.235h2.154c.327-.615-.282-1.868.938-1.787.375.025.687 1.007 1.027 1.551l-.247.225h2.229c.271-.636-.266-1.8.841-1.816 1.123-.013.665 1.118.852 1.823h2.231c.218-.686-.255-1.8.856-1.79.358 0 .712.966 1.068 1.49l-.27.288c.306.024.611.065.919.07.613.01 1.345-.084 1.4.779.058.943-.73.778-1.316.826-.314.025-.628.048-.874.066-.4.65.307 1.886-.954 1.754-.4-.042-.71-.963-1.062-1.481l.25-.253h-2.172c-.4.584.347 1.777-.9 1.788-1.274.012-.516-1.181-.924-1.805h-2.085c-.4.567.328 1.834-.966 1.8-1.166-.031-.5-1.141-.875-1.781h-2.077c-.331.583.254 1.849-.977 1.73-.4-.039-.72-.971-1.077-1.495z" class="cls-1" transform="translate(-5099.113 -1114.633)"/>
</svg>
