<svg xmlns="http://www.w3.org/2000/svg" width="21.667" height="19.34" viewBox="0 0 21.667 19.34">
    <path fill="#fff" d="M383.035 409.485c0-1.23-.005-2.461 0-3.691a.312.312 0 0 0-.278-.365c-1.186-.32-2.367-.658-3.549-.992-.719-.2-.857-.485-.575-1.181.478-1.18.965-2.356 1.433-3.539a4.644 4.644 0 0 1 2.466-2.57q1.412-.656 2.85-1.257a2.086 2.086 0 0 1 .778-.158q3.1-.019 6.208 0a1.872 1.872 0 0 1 .652.117c1.042.4 2.085.805 3.113 1.241a4.636 4.636 0 0 1 2.692 2.821c.4 1.137.831 2.264 1.247 3.4.212.579.061.884-.533 1.064-1.143.347-2.286.7-3.434 1.028a.378.378 0 0 0-.329.436c.012 2.383.007 4.765.007 7.148 0 .851-.222 1.151-1.047 1.4a17.848 17.848 0 0 1-6.237.643 23.242 23.242 0 0 1-4.5-.7 1.123 1.123 0 0 1-.974-1.244q.009-1.806.01-3.601zm-.025-4.863a1.806 1.806 0 0 0 .024-.194c0-.749-.015-1.5.014-2.248a.659.659 0 0 1 .27-.473c.342-.2.657.054.657.494 0 3.59.005 7.181-.007 10.772 0 .362.123.538.471.592 1.246.195 2.485.461 3.738.581a16.57 16.57 0 0 0 6.178-.524.569.569 0 0 0 .493-.651c-.016-3.59-.01-7.181-.009-10.772 0-.354.179-.556.48-.554s.464.2.468.533c.006.436 0 .872 0 1.309v1.13l3.39-1.029c-.431-1.172-.855-2.289-1.252-3.414a3.854 3.854 0 0 0-2.3-2.374c-.817-.332-1.641-.646-2.451-.994a.439.439 0 0 0-.635.16 3.646 3.646 0 0 1-.557.579 3.731 3.731 0 0 1-3.469 1.068 4.879 4.879 0 0 1-2.614-1.721.319.319 0 0 0-.449-.1c-.811.373-1.635.718-2.447 1.09a3.384 3.384 0 0 0-1.778 1.614c-.614 1.349-1.154 2.733-1.74 4.137zm8.639-8.055h-4.791c1.592 1.808 3.386 1.645 4.791 0z" transform="translate(-378.501 -395.722)"/>
</svg>
