<svg xmlns="http://www.w3.org/2000/svg" width="25.396" height="20.186" viewBox="0 0 25.396 20.186">
    <defs>
        <style>
            .cls-1{fill:none;stroke:#fff;stroke-miterlimit:10;stroke-width:1.5px}
        </style>
    </defs>
    <g id="Group_1206" transform="translate(.75 .749)">
        <path id="Path_41" d="M5475.539 624.768c-.006-1.548-.386-1.916-1.937-1.932-1.73-.018-3.461 0-5.281 0a10.2 10.2 0 0 0-.1-1.717c-.067-.29-.377-.743-.587-.748-2.251-.054-4.506-.034-6.8-.034l-.2 2.416h-2.567c-.335-1.724-.8-1.9-3.5-1.375-.083.431-.168.88-.251 1.306-2.657.428-2.657.428-2.657 3.111 0 3.732-.007 7.465 0 11.2 0 1.68.338 2.026 1.962 2.028q9.992.012 19.984 0c1.567 0 1.926-.353 1.931-1.916q.025-6.173.003-12.339z" class="cls-1" transform="translate(-5451.654 -620.33)"/>
        <path id="Path_42" d="M5490.227 652.282a4.074 4.074 0 1 1-4.065-4.041 4.107 4.107 0 0 1 4.065 4.041z" class="cls-1" transform="translate(-5473.443 -640.319)"/>
        <path id="Rectangle_13" d="M0 0H6.299V2.044H0z" class="cls-1" transform="translate(3.604 4.348)"/>
    </g>
</svg>
