<svg xmlns="http://www.w3.org/2000/svg" width="26.145" height="21.826" viewBox="0 0 26.145 21.826">
    <defs>
        <style>
            .cls-1{fill:#fff}
        </style>
    </defs>
    <g id="Group_1880" transform="translate(1800 4671.65)">
        <path id="Path_25" d="M4722.263 1189.962c-.071 3.2-.9 6.123-3.394 8.315-1.834 1.614-3.891 1.563-5.934-.045a10.71 10.71 0 0 1-3.936-6.7c-.243-1.316-.321-2.663-.452-4-.075-.765-.136-1.534-.149-2.3a1.585 1.585 0 0 1 1.952-1.6 15.273 15.273 0 0 0 9.192-.823 1.693 1.693 0 0 1 2.242 1.282c.129.918.2 1.844.289 2.767.05.522.087 1.046.119 1.57s.048 1.021.071 1.534zm-3.042 3.045a5.243 5.243 0 0 1-6.746.613 3.182 3.182 0 0 0 3.525 2.48 3.232 3.232 0 0 0 3.222-3.094zm-1.182-3.425a2.067 2.067 0 0 0 1.423-.5.617.617 0 0 0-.037-.96 1.872 1.872 0 0 0-2.319.2.564.564 0 0 0 .071.895 4.34 4.34 0 0 0 .863.365zm-5.577.55l.037-.09a1.685 1.685 0 0 0 1.248-.427.625.625 0 0 0 0-.989 1.85 1.85 0 0 0-2.339.219.551.551 0 0 0 .081.864 5.7 5.7 0 0 0 .974.422z" class="cls-1" transform="translate(-6508.398 -5854.348)"/>
        <g id="Group_1205" transform="translate(-1787.947 -4666.989)">
            <path id="Path_26" d="M4875.083 1246.245c.787.258 1.488.5 2.2.717a13.078 13.078 0 0 0 6.983.192 2.128 2.128 0 0 1 2.516 2.164c-.05.89-.113 1.78-.214 2.665a37.453 37.453 0 0 1-.522 3.84 10.882 10.882 0 0 1-3.651 6.159 5.418 5.418 0 0 1-3.521 1.428 4.65 4.65 0 0 1-3.174-1.308 10.087 10.087 0 0 1-2.99-5.271.388.388 0 0 1 .024-.276c.187-.281.395-.548.655-.9.057.229.1.372.128.517a9.6 9.6 0 0 0 2.607 5.069 3.774 3.774 0 0 0 3.129 1.235 4.78 4.78 0 0 0 2.659-1.3 10.235 10.235 0 0 0 3.366-6.223c.292-1.878.416-3.783.585-5.679a1.135 1.135 0 0 0-1.372-1.207 15.437 15.437 0 0 1-4.989.285 17.174 17.174 0 0 1-4.139-1.052.4.4 0 0 1-.217-.25 7.546 7.546 0 0 1-.063-.805z" class="cls-1" transform="translate(-4872.691 -1246.245)"/>
            <path id="Path_27" d="M4913.19 1382.8a2.572 2.572 0 0 1 1.5-2.106 3.563 3.563 0 0 1 4.021.4 2.554 2.554 0 0 1 1.048 2.3 5.035 5.035 0 0 0-6.569-.594z" class="cls-1" transform="translate(-4910.219 -1370.423)"/>
            <path id="Path_28" d="M4910.619 1317.629a2.127 2.127 0 0 1 1.26.516.679.679 0 0 1-.082 1.123 1.914 1.914 0 0 1-2.21-.179.679.679 0 0 1 .119-1.14 5.14 5.14 0 0 1 .913-.32z" class="cls-1" transform="translate(-4906.645 -1312.392)"/>
            <path id="Path_29" d="M4984.865 1326.9a2.126 2.126 0 0 1-1.234-.477.693.693 0 0 1 .1-1.19 1.943 1.943 0 0 1 2.124.183.684.684 0 0 1-.105 1.184 4.875 4.875 0 0 1-.885.3z" class="cls-1" transform="translate(-4975.221 -1319.217)"/>
        </g>
    </g>
</svg>
