<svg xmlns="http://www.w3.org/2000/svg" id="Group_1207" width="23.821" height="24.187" viewBox="0 0 23.821 24.187">
    <defs>
        <style>
            .cls-1{fill:#fff}
        </style>
    </defs>
    <path id="Path_43" d="M4877.947 105.588c-.254 0-.557-.02-.92-.05-.84-.069-.945-.355-1.025-1.348h-2.951l.05-.435c.146-1.284.412-1.987 1.432-2.268V85.308c-.979-.252-1.224-.8-1.437-2.184l-.069-.45h23.1l-.068.449c-.207 1.359-.461 1.928-1.435 2.192v16.128c.886.131 1.109.856 1.277 1.4a3.514 3.514 0 0 0 .274.709l.334.584h-3.371c-.27 1.289-.526 1.4-2.131 1.418h-.162a.979.979 0 0 1-1.127-1.158v-.176h-10.243c-.306 1.093-.593 1.368-1.528 1.368zm-1.09-.853c.054.01.152.018.233.025a3.423 3.423 0 0 0 1.324-.012c.137-.085.234-.437.378-1.007l.075-.3h11.4l.108.215a1.615 1.615 0 0 1 .127.739.959.959 0 0 0 .033.332.556.556 0 0 0 .3.049h.162a3.057 3.057 0 0 0 1.149-.107 2.5 2.5 0 0 0 .286-.994l.061-.318h2.749c-.033-.1-.062-.192-.09-.283-.205-.669-.309-.9-.9-.872l-.408.019V84.678l.319-.059c.643-.119.86-.2 1.047-1.164h-21.264c.187.966.393 1.038 1.046 1.152l.323.056v17.469l-.325.055c-.628.106-.891.239-1.052 1.223h2.791l.026.362a6.627 6.627 0 0 0 .101.963z" class="cls-1" transform="translate(-4872.687 -81.401)"/>
    <path id="Path_44" d="M4915.858 114.951h-14.052v-6.766h14.052zm-13.271-.781h12.49v-5.2h-12.49z" class="cls-1" transform="translate(-4896.972 -102.928)"/>
    <path id="Path_45" d="M4915.858 159.951h-14.052v-6.766h14.052zm-13.271-.781h12.49v-5.2h-12.49z" class="cls-1" transform="translate(-4896.972 -140.899)"/>
    <path id="Path_46" d="M4930.638 117.389h4.188a.391.391 0 0 0 0-.781h-4.188a.391.391 0 0 0 0 .781z" class="cls-1" transform="translate(-4920.982 -110.035)"/>
    <path id="Path_47" d="M4930.638 162.389h4.188a.391.391 0 0 0 0-.781h-4.188a.391.391 0 0 0 0 .781z" class="cls-1" transform="translate(-4920.982 -148.007)"/>
    <path id="Path_48" d="M4871.232 75.32h20.226c.93 0 1.864.028 2.794 0h.038a.391.391 0 0 0 0-.781h-20.225c-.931 0-1.865-.029-2.794 0h-.039a.391.391 0 0 0 0 .781z" class="cls-1" transform="translate(-4870.855 -74.527)"/>
</svg>
