<svg xmlns="http://www.w3.org/2000/svg" width="22.029" height="22.144" viewBox="0 0 22.029 22.144">
    <defs>
        <style>
            .cls-1{fill:none;stroke:#fff;stroke-miterlimit:10;stroke-width:.75px}
        </style>
    </defs>
    <g id="Group_1203" transform="translate(.375 .71)">
        <path id="Path_49" d="M4616.942 79.378v4.346c0 .995-.444 1.551-1.274 1.557s-1.325-.55-1.3-1.533q.128-4.411.288-8.821a.966.966 0 0 0-.528-1 5.173 5.173 0 0 1-2.25-4.8 5.544 5.544 0 0 1 1.338-3.711 3.092 3.092 0 0 1 4.813-.066 6.263 6.263 0 0 1-.035 7.939c-.145.155-.289.358-.474.421-.949.32-.9 1.047-.867 1.841.048 1.277.012 2.556.012 3.834zm-3.979-10.458c-.034.477.08.9.63.914.508.013.663-.375.66-.832a.954.954 0 0 1 .01-.191c.167-.889.325-1.761 1.422-2.038a.615.615 0 0 0-.37-1.164 3.324 3.324 0 0 0-1.3.714 3.866 3.866 0 0 0-1.052 2.597z" class="cls-1" transform="translate(-4611.883 -64.226)"/>
        <path id="Path_50" d="M4735.788 79.393v4.537a1.316 1.316 0 0 1-1.315 1.481 1.292 1.292 0 0 1-1.3-1.484c.1-2.962.2-5.923.324-8.884a.859.859 0 0 0-.5-.951 2.823 2.823 0 0 1-1.489-2.775c.092-1.658.281-3.311.431-4.967a13.7 13.7 0 0 1 .147-1.4 1.979 1.979 0 0 1 .355-.58c.117.212.323.417.338.636.092 1.318.137 2.639.208 3.959.016.3-.088.744.378.713.149-.01.361-.466.386-.732.122-1.315.194-2.635.275-3.954.02-.32.068-.678.458-.6a.826.826 0 0 1 .436.618c.124 1.336.176 2.68.3 4.017.021.24.255.461.392.691.125-.234.343-.461.358-.7.088-1.34.111-2.684.2-4.024.014-.215.238-.417.366-.625.116.2.313.381.335.586.219 2.055.444 4.111.6 6.172a2.976 2.976 0 0 1-1.607 3.033.663.663 0 0 0-.4.694c.02 1.513.008 3.026.008 4.538z" class="cls-1" transform="translate(-4716.191 -64.352)"/>
        <path id="Path_51" d="M4686.432 74.9v9.085c0 .84-.363 1.311-1.032 1.364a1.013 1.013 0 0 1-1.145-.633c-1.235-3.557-2.107-7.161-1.238-10.957a2.131 2.131 0 0 1 1.177-1.718c.117-.05.2-.346.184-.519-.151-1.869-.328-3.737-.492-5.605-.085-.968.376-1.579 1.2-1.606s1.344.536 1.346 1.5q.005 4.548 0 9.089z" class="cls-1" transform="translate(-4673.606 -64.301)"/>
    </g>
</svg>
