<svg xmlns="http://www.w3.org/2000/svg" id="Group_1213" width="34.1" height="21.5" viewBox="0 0 34.1 21.5">
    <defs>
        <style>
            .cls-1{fill:#fff}
        </style>
    </defs>
    <path id="Path_30" d="M5063.281 1065.695a15.11 15.11 0 0 1-17.976 6.283 1.571 1.571 0 0 0-1.046.009 10.725 10.725 0 0 1-14.953-8.456.976.976 0 0 0-.125-.261V1061c.2-.773.345-1.561.6-2.315a10.72 10.72 0 0 1 19.821-1.244 1.032 1.032 0 0 0 1.052.7 14.982 14.982 0 0 1 12.307 6.716c.1.137.215.259.324.388zm-4.329-.163c0-.959.025-1.918-.017-2.875a1.115 1.115 0 0 0-.357-.75 13.873 13.873 0 0 0-16.212-.034 1.249 1.249 0 0 0-.427.856q-.057 2.8 0 5.6a1.228 1.228 0 0 0 .451.84 13.887 13.887 0 0 0 15.985.125 1.162 1.162 0 0 0 .589-1.113c-.046-.881-.011-1.766-.011-2.649zm-19.637-3.971v-9.053a9.5 9.5 0 0 0-5.767 2.447 11.063 11.063 0 0 1 2.757 6.606zm7.008-6.623a9.486 9.486 0 0 0-5.756-2.422v9.079a1.426 1.426 0 0 0 .4-.093c.89-.568 1.779-1.139 2.653-1.731a.9.9 0 0 0 .334-.468 11.375 11.375 0 0 1 2.37-4.365zm-12.789 14.393a9.587 9.587 0 0 0 5.835 2.412c0-1.047-.02-2 .008-2.957a1.977 1.977 0 0 0-.48-1.36c-1.646-2.133-1.652-1.661-.074-3.764.208-.277.4-.568.673-.959h-3.192a11.113 11.113 0 0 1-2.769 6.628zm1.611-7.777a9.286 9.286 0 0 0-2.414-5.809 9.144 9.144 0 0 0-2.367 5.809zm-2.4 6.971a9.221 9.221 0 0 0 2.389-5.813h-4.772a9.2 9.2 0 0 0 2.381 5.813zm12.318-9.5l3.727-.886-1.684-2.593zm-4.421 8.745l.145-.12v-4.334a12.492 12.492 0 0 0-1.77 1.968.482.482 0 0 0 0 .451c.526.695 1.083 1.365 1.623 2.04zm19.642-4.479l-.154.069v4.556l1.979-2.411zm-16.9 7.918l-2.817-1.949v2.561z" class="cls-1" transform="translate(-5029.181 -1051.39)"/>
    <path id="Path_31" d="M5122.719 1134.556h-1.407c-.287.434.163 1.351-.728 1.241-.289-.036-.5-.7-.747-1.073l.163-.161a4.5 4.5 0 0 1-1.03-.08c-.218-.066-.379-.323-.565-.494.195-.2.358-.484.591-.563a3.273 3.273 0 0 1 .985-.023c.183-.5-.145-1.337.669-1.3.266.012.5.693.751 1.068l-.167.171h1.531c.19-.446-.155-1.258.623-1.235.279.008.539.706.808 1.089l-.176.165h1.51c.229-.431-.2-1.309.658-1.253.263.017.482.706.721 1.087l-.173.158h1.563c.189-.446-.187-1.264.589-1.273s.466.784.6 1.278h1.563c.153-.481-.179-1.259.6-1.255.251 0 .5.677.749 1.044l-.189.2c.214.017.429.046.644.049.43.007.943-.059.979.546.04.661-.512.545-.923.579l-.612.047c-.28.456.215 1.322-.669 1.23-.281-.029-.5-.675-.744-1.038l.175-.178h-1.522c-.281.409.243 1.245-.628 1.253-.893.008-.362-.828-.648-1.265h-1.463c-.281.4.23 1.286-.677 1.261-.817-.022-.352-.8-.613-1.249h-1.457c-.231.408.179 1.3-.684 1.213-.283-.027-.5-.681-.755-1.047z" class="cls-1" transform="translate(-5104.883 -1119.851)"/>
</svg>
